<?xml version="1.0" standalone="no"?>
<!DOCTYPE svg PUBLIC "-//W3C//DTD SVG 20010904//EN"
 "http://www.w3.org/TR/2001/REC-SVG-20010904/DTD/svg10.dtd">
<svg version="1.0" xmlns="http://www.w3.org/2000/svg"
 width="2048.000000pt" height="2048.000000pt" viewBox="0 0 2048.000000 2048.000000"
 preserveAspectRatio="xMidYMid meet">

<g transform="translate(0.000000,2048.000000) scale(0.100000,-0.100000)"
fill="#000000" stroke="none">
<path d="M17448 14767 c-7 -16 1 -37 14 -37 7 0 6 5 -1 14 -9 11 -9 15 1 18 8
3 9 6 1 11 -6 4 -13 1 -15 -6z"/>
<path d="M17455 14610 c3 -5 8 -10 11 -10 2 0 4 5 4 10 0 6 -5 10 -11 10 -5 0
-7 -4 -4 -10z"/>
<path d="M14535 13511 c-3 -5 -2 -12 3 -15 5 -3 9 1 9 9 0 17 -3 19 -12 6z"/>
<path d="M3058 12973 c7 -3 16 -2 19 1 4 3 -2 6 -13 5 -11 0 -14 -3 -6 -6z"/>
<path d="M3108 12973 c12 -2 30 -2 40 0 9 3 -1 5 -23 4 -22 0 -30 -2 -17 -4z"/>
<path d="M3178 12973 c6 -2 18 -2 25 0 6 3 1 5 -13 5 -14 0 -19 -2 -12 -5z"/>
<path d="M3338 12973 c7 -3 16 -2 19 1 4 3 -2 6 -13 5 -11 0 -14 -3 -6 -6z"/>
<path d="M3398 12973 c7 -3 16 -2 19 1 4 3 -2 6 -13 5 -11 0 -14 -3 -6 -6z"/>
<path d="M3443 12973 c9 -2 23 -2 30 0 6 3 -1 5 -18 5 -16 0 -22 -2 -12 -5z"/>
<path d="M3498 12973 c7 -3 16 -2 19 1 4 3 -2 6 -13 5 -11 0 -14 -3 -6 -6z"/>
<path d="M3538 12973 c7 -3 16 -2 19 1 4 3 -2 6 -13 5 -11 0 -14 -3 -6 -6z"/>
<path d="M3578 12973 c7 -3 16 -2 19 1 4 3 -2 6 -13 5 -11 0 -14 -3 -6 -6z"/>
<path d="M3618 12973 c7 -3 16 -2 19 1 4 3 -2 6 -13 5 -11 0 -14 -3 -6 -6z"/>
<path d="M3663 12973 c9 -2 23 -2 30 0 6 3 -1 5 -18 5 -16 0 -22 -2 -12 -5z"/>
<path d="M3778 12973 c7 -3 16 -2 19 1 4 3 -2 6 -13 5 -11 0 -14 -3 -6 -6z"/>
<path d="M3823 12973 c9 -2 23 -2 30 0 6 3 -1 5 -18 5 -16 0 -22 -2 -12 -5z"/>
<path d="M3878 12973 c7 -3 16 -2 19 1 4 3 -2 6 -13 5 -11 0 -14 -3 -6 -6z"/>
<path d="M3983 12973 c9 -2 23 -2 30 0 6 3 -1 5 -18 5 -16 0 -22 -2 -12 -5z"/>
<path d="M4038 12973 c7 -3 16 -2 19 1 4 3 -2 6 -13 5 -11 0 -14 -3 -6 -6z"/>
<path d="M4138 12973 c7 -3 16 -2 19 1 4 3 -2 6 -13 5 -11 0 -14 -3 -6 -6z"/>
<path d="M4183 12973 c9 -2 23 -2 30 0 6 3 -1 5 -18 5 -16 0 -22 -2 -12 -5z"/>
<path d="M4258 12973 c7 -3 16 -2 19 1 4 3 -2 6 -13 5 -11 0 -14 -3 -6 -6z"/>
<path d="M4323 12973 c9 -2 23 -2 30 0 6 3 -1 5 -18 5 -16 0 -22 -2 -12 -5z"/>
<path d="M4378 12973 c7 -3 16 -2 19 1 4 3 -2 6 -13 5 -11 0 -14 -3 -6 -6z"/>
<path d="M4468 12973 c6 -2 18 -2 25 0 6 3 1 5 -13 5 -14 0 -19 -2 -12 -5z"/>
<path d="M4658 12973 c7 -3 16 -2 19 1 4 3 -2 6 -13 5 -11 0 -14 -3 -6 -6z"/>
<path d="M4708 12973 c12 -2 30 -2 40 0 9 3 -1 5 -23 4 -22 0 -30 -2 -17 -4z"/>
<path d="M4783 12973 c9 -2 23 -2 30 0 6 3 -1 5 -18 5 -16 0 -22 -2 -12 -5z"/>
<path d="M4898 12973 c7 -3 16 -2 19 1 4 3 -2 6 -13 5 -11 0 -14 -3 -6 -6z"/>
<path d="M4938 12973 c7 -3 16 -2 19 1 4 3 -2 6 -13 5 -11 0 -14 -3 -6 -6z"/>
<path d="M5088 12973 c7 -3 16 -2 19 1 4 3 -2 6 -13 5 -11 0 -14 -3 -6 -6z"/>
<path d="M5128 12973 c6 -2 18 -2 25 0 6 3 1 5 -13 5 -14 0 -19 -2 -12 -5z"/>
<path d="M5183 12973 c9 -2 23 -2 30 0 6 3 -1 5 -18 5 -16 0 -22 -2 -12 -5z"/>
<path d="M5243 12973 c9 -2 23 -2 30 0 6 3 -1 5 -18 5 -16 0 -22 -2 -12 -5z"/>
<path d="M5318 12973 c7 -3 16 -2 19 1 4 3 -2 6 -13 5 -11 0 -14 -3 -6 -6z"/>
<path d="M5363 12973 c9 -2 23 -2 30 0 6 3 -1 5 -18 5 -16 0 -22 -2 -12 -5z"/>
<path d="M5423 12973 c9 -2 23 -2 30 0 6 3 -1 5 -18 5 -16 0 -22 -2 -12 -5z"/>
<path d="M5478 12973 c7 -3 16 -2 19 1 4 3 -2 6 -13 5 -11 0 -14 -3 -6 -6z"/>
<path d="M5578 12973 c7 -3 16 -2 19 1 4 3 -2 6 -13 5 -11 0 -14 -3 -6 -6z"/>
<path d="M5618 12973 c7 -3 16 -2 19 1 4 3 -2 6 -13 5 -11 0 -14 -3 -6 -6z"/>
<path d="M7018 12783 c7 -3 16 -2 19 1 4 3 -2 6 -13 5 -11 0 -14 -3 -6 -6z"/>
<path d="M7157 12739 c7 -7 15 -10 18 -7 3 3 -2 9 -12 12 -14 6 -15 5 -6 -5z"/>
<path d="M10110 12150 c0 -5 5 -10 10 -10 6 0 10 5 10 10 0 6 -4 10 -10 10 -5
0 -10 -4 -10 -10z"/>
<path d="M16490 12140 c0 -5 5 -10 11 -10 5 0 7 5 4 10 -3 6 -8 10 -11 10 -2
0 -4 -4 -4 -10z"/>
<path d="M16490 12080 c0 -11 4 -20 8 -20 4 0 8 9 8 20 0 11 -4 20 -8 20 -4 0
-8 -9 -8 -20z"/>
<path d="M6775 12079 c-4 -6 -5 -12 -2 -15 2 -3 7 2 10 11 7 17 1 20 -8 4z"/>
<path d="M16490 12010 c0 -5 5 -10 10 -10 6 0 10 5 10 10 0 6 -4 10 -10 10 -5
0 -10 -4 -10 -10z"/>
<path d="M16490 11919 c0 -5 5 -7 10 -4 6 3 10 8 10 11 0 2 -4 4 -10 4 -5 0
-10 -5 -10 -11z"/>
<path d="M7330 11713 c0 -13 5 -23 10 -23 13 0 13 11 0 30 -8 12 -10 11 -10
-7z"/>
<path d="M7265 11700 c-3 -5 -1 -10 4 -10 6 0 11 5 11 10 0 6 -2 10 -4 10 -3
0 -8 -4 -11 -10z"/>
<path d="M7295 11700 c-3 -6 1 -7 9 -4 18 7 21 14 7 14 -6 0 -13 -4 -16 -10z"/>
<path d="M15183 11668 c-20 -26 -26 -41 -15 -34 12 7 36 46 29 46 -3 0 -9 -6
-14 -12z"/>
<path d="M4307 11657 c-4 -10 5 -14 31 -16 21 -1 65 -3 99 -6 35 -2 65 1 68 6
4 5 17 6 31 3 18 -5 23 -3 19 7 -3 9 -24 15 -55 16 -29 1 -48 -3 -45 -8 4 -5
2 -9 -4 -9 -5 0 -12 4 -15 8 -3 5 -32 10 -64 11 -43 1 -61 -2 -65 -12z m197
-9 c-3 -4 -9 -8 -15 -8 -5 0 -9 4 -9 8 0 5 7 9 15 9 8 0 12 -4 9 -9z"/>
<path d="M4676 11659 c4 -8 0 -9 -15 -4 -16 5 -21 2 -20 -12 0 -10 3 -13 5 -7
3 7 14 10 24 7 14 -4 20 0 20 11 0 9 -5 16 -11 16 -5 0 -7 -5 -3 -11z"/>
<path d="M4733 11655 c0 -8 5 -15 11 -16 6 0 21 -2 34 -3 13 -2 22 3 22 11 0
7 -7 13 -15 13 -8 0 -15 -5 -15 -12 0 -6 -7 -4 -18 5 -16 15 -19 15 -19 2z"/>
<path d="M4820 11670 c-9 -29 -6 -37 11 -33 10 3 19 10 19 15 0 5 -4 7 -9 4
-5 -4 -12 0 -14 6 -3 7 -6 11 -7 8z"/>
<path d="M4930 11660 c0 -5 -7 -7 -15 -4 -8 4 -15 1 -15 -6 0 -8 9 -11 25 -8
14 3 25 2 25 -3 0 -9 78 -4 88 6 3 3 0 11 -6 17 -9 9 -12 9 -12 0 0 -7 -5 -12
-11 -12 -5 0 -7 5 -4 10 3 6 -4 10 -15 10 -16 0 -20 -5 -16 -15 3 -8 1 -15 -4
-15 -6 0 -10 7 -10 15 0 8 -7 15 -15 15 -8 0 -15 -4 -15 -10z"/>
<path d="M5110 11658 c0 -13 8 -18 25 -18 14 0 25 4 25 9 0 16 -18 22 -26 10
-4 -8 -9 -7 -15 2 -7 11 -9 10 -9 -3z"/>
<path d="M5173 11656 c0 -10 15 -15 45 -18 34 -3 46 1 53 14 7 14 6 18 -5 18
-8 0 -18 -4 -21 -10 -3 -5 -11 -10 -16 -10 -6 0 -7 5 -4 10 3 6 2 10 -4 10 -5
0 -12 -6 -15 -12 -5 -10 -7 -10 -12 0 -8 16 -21 15 -21 -2z"/>
<path d="M5292 11658 c-17 -17 -15 -27 6 -23 9 2 34 4 54 4 30 1 36 4 31 17
-4 11 -8 12 -13 4 -6 -9 -9 -9 -13 1 -4 10 -6 10 -6 2 -1 -7 -6 -13 -12 -13
-5 0 -7 5 -4 10 9 14 -8 12 -24 -2 -11 -10 -13 -10 -7 0 9 15 4 16 -12 0z"/>
<path d="M5400 11656 c0 -6 26 -12 61 -13 43 -1 59 1 56 10 -5 15 -117 18
-117 3z"/>
<path d="M5533 11649 c1 -17 2 -17 21 -1 18 16 19 16 13 0 -8 -23 0 -23 12 0
8 14 5 17 -19 18 -22 1 -28 -3 -27 -17z"/>
<path d="M5607 11664 c-3 -3 -3 -12 -1 -19 4 -10 14 -11 35 -5 17 5 31 5 35
-1 3 -5 9 -7 13 -5 4 3 20 7 35 10 16 3 31 8 34 11 4 3 -8 4 -25 0 -18 -3 -35
0 -39 6 -4 8 -9 7 -15 -2 -7 -11 -9 -11 -9 1 0 13 -1 13 -10 0 -7 -12 -12 -12
-22 -2 -13 13 -22 15 -31 6z"/>
<path d="M6216 11655 c-3 -8 -1 -15 4 -15 13 0 22 18 11 24 -5 3 -11 -1 -15
-9z"/>
<path d="M4570 11650 c0 -5 7 -10 15 -10 8 0 15 5 15 10 0 6 -7 10 -15 10 -8
0 -15 -4 -15 -10z"/>
<path d="M4705 11650 c-3 -5 -1 -10 4 -10 6 0 11 5 11 10 0 6 -2 10 -4 10 -3
0 -8 -4 -11 -10z"/>
<path d="M4865 11650 c-3 -5 1 -10 9 -10 9 0 16 5 16 10 0 6 -4 10 -9 10 -6 0
-13 -4 -16 -10z"/>
<path d="M5072 11651 c-11 -7 -11 -9 1 -14 9 -3 18 1 21 9 6 16 -2 18 -22 5z"/>
<path d="M15166 11605 c4 -8 8 -15 10 -15 2 0 4 7 4 15 0 8 -4 15 -10 15 -5 0
-7 -7 -4 -15z"/>
<path d="M15160 11570 c0 -5 5 -10 11 -10 5 0 7 5 4 10 -3 6 -8 10 -11 10 -2
0 -4 -4 -4 -10z"/>
<path d="M15156 11533 c-6 -14 -5 -15 5 -6 7 7 10 15 7 18 -3 3 -9 -2 -12 -12z"/>
<path d="M4205 11520 c3 -5 8 -10 11 -10 2 0 4 5 4 10 0 6 -5 10 -11 10 -5 0
-7 -4 -4 -10z"/>
<path d="M9567 11464 c19 -29 19 -29 19 -5 0 11 -8 22 -18 24 -16 5 -16 3 -1
-19z"/>
<path d="M4206 11465 c-3 -8 -1 -15 4 -15 6 0 10 7 10 15 0 8 -2 15 -4 15 -2
0 -6 -7 -10 -15z"/>
<path d="M4212 11420 c0 -14 2 -19 5 -12 2 6 2 18 0 25 -3 6 -5 1 -5 -13z"/>
<path d="M15156 11421 c-4 -5 -2 -12 3 -15 5 -4 12 -2 15 3 4 5 2 12 -3 15 -5
4 -12 2 -15 -3z"/>
<path d="M11765 11240 c-3 -6 1 -7 9 -4 18 7 21 14 7 14 -6 0 -13 -4 -16 -10z"/>
<path d="M12021 11234 c0 -11 3 -14 6 -6 3 7 2 16 -1 19 -3 4 -6 -2 -5 -13z"/>
<path d="M6805 11220 c-3 -5 -1 -10 4 -10 6 0 11 5 11 10 0 6 -2 10 -4 10 -3
0 -8 -4 -11 -10z"/>
<path d="M12019 11153 c0 -32 -2 -79 -3 -105 -2 -27 1 -48 6 -48 4 0 8 47 8
105 0 58 -2 105 -5 105 -3 0 -5 -26 -6 -57z"/>
<path d="M6769 11167 c-11 -19 -10 -21 3 -9 11 9 18 10 23 2 3 -5 1 -10 -6
-10 -7 0 -10 -3 -6 -6 3 -3 12 -2 19 3 12 7 11 11 -4 25 -17 17 -18 16 -29 -5z"/>
<path d="M9755 11160 c3 -5 8 -10 11 -10 2 0 4 5 4 10 0 6 -5 10 -11 10 -5 0
-7 -4 -4 -10z"/>
<path d="M6800 11125 c-7 -8 -15 -13 -19 -11 -4 3 -8 -4 -8 -15 -1 -11 2 -17
7 -14 4 3 10 0 12 -5 2 -7 11 -5 23 4 16 13 17 17 6 25 -7 5 -10 14 -7 20 10
16 1 13 -14 -4z"/>
<path d="M6700 11065 c-7 -9 -10 -18 -7 -21 3 -3 10 4 17 15 13 25 8 27 -10 6z"/>
<path d="M12019 10985 c-7 -6 -1 -106 6 -113 3 -3 5 22 5 56 0 60 -1 67 -11
57z"/>
<path d="M13649 10903 c-13 -16 -12 -17 4 -4 16 13 21 21 13 21 -2 0 -10 -8
-17 -17z"/>
<path d="M13548 10903 c-10 -2 -18 -9 -18 -14 0 -14 28 -11 33 4 3 7 6 5 6 -5
1 -15 21 -28 21 -14 0 12 -13 36 -19 35 -3 -1 -14 -3 -23 -6z"/>
<path d="M13609 10853 c-13 -16 -12 -17 4 -4 16 13 21 21 13 21 -2 0 -10 -8
-17 -17z"/>
<path d="M12018 10820 c2 -22 6 -40 8 -40 2 0 4 18 4 40 0 22 -3 40 -8 40 -4
0 -6 -18 -4 -40z"/>
<path d="M8240 10749 c0 -5 5 -7 10 -4 6 3 10 8 10 11 0 2 -4 4 -10 4 -5 0
-10 -5 -10 -11z"/>
<path d="M4212 10720 c0 -14 2 -19 5 -12 2 6 2 18 0 25 -3 6 -5 1 -5 -13z"/>
<path d="M8999 10579 c-13 -11 -17 -17 -9 -13 8 5 23 7 32 6 13 -2 16 1 12 12
-8 20 -7 20 -35 -5z"/>
<path d="M12022 10570 c0 -19 2 -27 5 -17 2 9 2 25 0 35 -3 9 -5 1 -5 -18z"/>
<path d="M10176 10545 c-3 -8 -1 -15 4 -15 13 0 22 18 11 24 -5 3 -11 -1 -15
-9z"/>
<path d="M12908 10397 c-2 -6 -1 -34 2 -62 l6 -50 4 58 c5 54 -2 85 -12 54z"/>
<path d="M6295 10280 c-3 -5 -1 -10 4 -10 6 0 11 5 11 10 0 6 -2 10 -4 10 -3
0 -8 -4 -11 -10z"/>
<path d="M7780 10274 c0 -8 5 -12 10 -9 6 4 8 11 5 16 -9 14 -15 11 -15 -7z"/>
<path d="M4211 10264 c0 -11 3 -14 6 -6 3 7 2 16 -1 19 -3 4 -6 -2 -5 -13z"/>
<path d="M12912 10250 c0 -19 2 -27 5 -17 2 9 2 25 0 35 -3 9 -5 1 -5 -18z"/>
<path d="M8282 9850 c0 -14 2 -19 5 -12 2 6 2 18 0 25 -3 6 -5 1 -5 -13z"/>
<path d="M6150 9829 c0 -5 5 -7 10 -4 6 3 10 8 10 11 0 2 -4 4 -10 4 -5 0 -10
-5 -10 -11z"/>
<path d="M8274 9730 c15 -84 19 -101 25 -105 4 -2 8 9 8 25 0 17 -4 30 -8 30
-4 0 -6 14 -4 30 2 17 0 28 -5 25 -4 -3 -11 1 -14 7 -3 7 -4 2 -2 -12z"/>
<path d="M10663 9619 c-2 -23 3 -25 10 -4 4 8 3 16 -1 19 -4 3 -9 -4 -9 -15z"/>
<path d="M10662 9570 c0 -14 2 -19 5 -12 2 6 2 18 0 25 -3 6 -5 1 -5 -13z"/>
<path d="M12022 9520 c0 -14 2 -19 5 -12 2 6 2 18 0 25 -3 6 -5 1 -5 -13z"/>
<path d="M4211 9504 c0 -11 3 -14 6 -6 3 7 2 16 -1 19 -3 4 -6 -2 -5 -13z"/>
<path d="M12021 9464 c0 -11 3 -14 6 -6 3 7 2 16 -1 19 -3 4 -6 -2 -5 -13z"/>
<path d="M6060 9400 c0 -5 5 -10 11 -10 5 0 7 5 4 10 -3 6 -8 10 -11 10 -2 0
-4 -4 -4 -10z"/>
<path d="M6050 9310 c0 -16 3 -30 8 -30 4 0 7 14 7 30 0 17 -3 30 -7 30 -5 0
-8 -13 -8 -30z"/>
<path d="M8401 9174 c0 -11 3 -14 6 -6 3 7 2 16 -1 19 -3 4 -6 -2 -5 -13z"/>
<path d="M10661 9134 c0 -11 3 -14 6 -6 3 7 2 16 -1 19 -3 4 -6 -2 -5 -13z"/>
<path d="M12023 9065 c0 -27 2 -38 4 -22 2 15 2 37 0 50 -2 12 -4 0 -4 -28z"/>
<path d="M6025 9081 c-3 -5 -1 -12 5 -16 5 -3 10 1 10 9 0 18 -6 21 -15 7z"/>
<path d="M8415 9080 c3 -5 8 -10 11 -10 2 0 4 5 4 10 0 6 -5 10 -11 10 -5 0
-7 -4 -4 -10z"/>
<path d="M6027 9043 c-7 -15 -7 -72 1 -77 4 -2 9 15 10 40 1 41 -2 54 -11 37z"/>
<path d="M4205 8910 c-3 -5 -1 -10 4 -10 6 0 11 5 11 10 0 6 -2 10 -4 10 -3 0
-8 -4 -11 -10z"/>
<path d="M8437 8899 c4 -13 8 -18 11 -10 2 7 -1 18 -6 23 -8 8 -9 4 -5 -13z"/>
<path d="M6035 8890 c-3 -5 -1 -10 4 -10 6 0 11 5 11 10 0 6 -2 10 -4 10 -3 0
-8 -4 -11 -10z"/>
<path d="M12022 8875 c0 -16 2 -22 5 -12 2 9 2 23 0 30 -3 6 -5 -1 -5 -18z"/>
<path d="M8442 8830 c0 -22 3 -40 8 -40 5 0 7 17 4 37 -6 50 -12 52 -12 3z"/>
<path d="M8444 8750 c0 -16 3 -30 8 -30 4 0 8 14 8 30 0 17 -4 30 -8 30 -5 0
-8 -13 -8 -30z"/>
<path d="M8440 8690 c0 -11 5 -20 10 -20 6 0 10 9 10 20 0 11 -4 20 -10 20 -5
0 -10 -9 -10 -20z"/>
<path d="M8442 8625 c2 -27 5 -32 15 -23 10 8 11 13 2 18 -8 6 -8 9 0 14 12 8
5 26 -10 26 -5 0 -9 -16 -7 -35z"/>
<path d="M12023 8595 c0 -33 2 -45 4 -27 2 18 2 45 0 60 -2 15 -4 0 -4 -33z"/>
<path d="M8445 8550 c-3 -5 -1 -10 4 -10 6 0 11 5 11 10 0 6 -2 10 -4 10 -3 0
-8 -4 -11 -10z"/>
<path d="M12022 8470 c0 -19 2 -27 5 -17 2 9 2 25 0 35 -3 9 -5 1 -5 -18z"/>
<path d="M12022 8405 c0 -16 2 -22 5 -12 2 9 2 23 0 30 -3 6 -5 -1 -5 -18z"/>
<path d="M6015 8280 c-3 -5 -1 -10 4 -10 6 0 11 5 11 10 0 6 -2 10 -4 10 -3 0
-8 -4 -11 -10z"/>
<path d="M8421 8264 c0 -11 3 -14 6 -6 3 7 2 16 -1 19 -3 4 -6 -2 -5 -13z"/>
<path d="M6020 8220 c0 -5 5 -10 10 -10 6 0 10 5 10 10 0 6 -4 10 -10 10 -5 0
-10 -4 -10 -10z"/>
<path d="M8410 8209 c0 -5 5 -7 10 -4 6 3 10 8 10 11 0 2 -4 4 -10 4 -5 0 -10
-5 -10 -11z"/>
<path d="M6020 8184 c0 -8 5 -12 10 -9 6 4 8 11 5 16 -9 14 -15 11 -15 -7z"/>
<path d="M12022 8150 c0 -14 2 -19 5 -12 2 6 2 18 0 25 -3 6 -5 1 -5 -13z"/>
<path d="M6030 8129 c0 -5 5 -7 10 -4 6 3 10 8 10 11 0 2 -4 4 -10 4 -5 0 -10
-5 -10 -11z"/>
<path d="M12024 8010 c0 -63 1 -89 3 -57 2 31 2 83 0 115 -2 31 -3 5 -3 -58z"/>
<path d="M6034 8085 c0 -14 4 -25 8 -25 4 0 7 11 6 25 -3 33 -16 33 -14 0z"/>
<path d="M6040 8016 c0 -15 4 -25 9 -22 10 7 9 31 -2 42 -4 4 -7 -5 -7 -20z"/>
<path d="M8381 8024 c0 -11 3 -14 6 -6 3 7 2 16 -1 19 -3 4 -6 -2 -5 -13z"/>
<path d="M8370 7985 c0 -8 2 -15 4 -15 2 0 6 7 10 15 3 8 1 15 -4 15 -6 0 -10
-7 -10 -15z"/>
<path d="M8360 7945 c0 -8 4 -15 8 -15 5 0 9 7 9 15 0 8 -4 15 -9 15 -4 0 -8
-7 -8 -15z"/>
<path d="M12018 7754 c-4 -174 1 -314 10 -314 8 0 7 438 -1 447 -3 3 -7 -57
-9 -133z"/>
<path d="M8335 7829 c-4 -6 -5 -12 -2 -15 2 -3 7 2 10 11 7 17 1 20 -8 4z"/>
<path d="M6073 7805 c0 -8 4 -15 9 -15 4 0 8 4 8 9 0 6 -4 12 -8 15 -5 3 -9
-1 -9 -9z"/>
<path d="M8321 7784 c0 -11 3 -14 6 -6 3 7 2 16 -1 19 -3 4 -6 -2 -5 -13z"/>
<path d="M8310 7745 c0 -8 2 -15 4 -15 2 0 6 7 10 15 3 8 1 15 -4 15 -6 0 -10
-7 -10 -15z"/>
<path d="M8296 7704 c-4 -9 -4 -19 -1 -22 2 -3 7 3 11 12 4 9 4 19 1 22 -2 3
-7 -3 -11 -12z"/>
<path d="M15000 7561 c0 -6 5 -13 10 -16 6 -3 10 1 10 9 0 9 -4 16 -10 16 -5
0 -10 -4 -10 -9z"/>
<path d="M14951 7544 c0 -11 3 -14 6 -6 3 7 2 16 -1 19 -3 4 -6 -2 -5 -13z"/>
<path d="M15010 7530 c-1 -3 -3 -16 -6 -30 -3 -21 -2 -22 7 -7 6 10 8 23 5 30
-2 7 -5 10 -6 7z"/>
<path d="M12020 7330 c0 -11 4 -20 9 -20 5 0 7 9 4 20 -3 11 -7 20 -9 20 -2 0
-4 -9 -4 -20z"/>
<path d="M6190 7309 c0 -5 5 -7 10 -4 6 3 10 8 10 11 0 2 -4 4 -10 4 -5 0 -10
-5 -10 -11z"/>
<path d="M12022 7220 c0 -14 2 -19 5 -12 2 6 2 18 0 25 -3 6 -5 1 -5 -13z"/>
<path d="M6221 7214 c0 -11 3 -14 6 -6 3 7 2 16 -1 19 -3 4 -6 -2 -5 -13z"/>
<path d="M6236 7177 c3 -10 9 -15 12 -12 3 3 0 11 -7 18 -10 9 -11 8 -5 -6z"/>
<path d="M12020 7145 c0 -8 2 -15 4 -15 2 0 6 7 10 15 3 8 1 15 -4 15 -6 0
-10 -7 -10 -15z"/>
<path d="M12020 6960 c0 -90 3 -161 6 -157 3 3 6 74 6 157 0 83 -3 154 -6 157
-3 4 -6 -67 -6 -157z"/>
<path d="M8009 7063 c-31 -49 -34 -57 -20 -49 12 7 55 86 47 86 -2 0 -15 -17
-27 -37z"/>
<path d="M8030 7048 c0 -7 -3 -23 -6 -35 -4 -13 -2 -23 3 -23 5 0 10 16 11 35
1 19 -1 35 -3 35 -3 0 -5 -6 -5 -12z"/>
<path d="M7976 6980 c-11 -3 -15 -9 -10 -13 10 -6 42 9 34 16 -3 3 -14 1 -24
-3z"/>
<path d="M14469 6743 l-24 -28 28 24 c15 14 27 26 27 28 0 8 -8 1 -31 -24z"/>
<path d="M12021 6744 c0 -11 3 -14 6 -6 3 7 2 16 -1 19 -3 4 -6 -2 -5 -13z"/>
<path d="M12020 6653 c0 -24 3 -33 9 -25 7 12 4 62 -5 62 -2 0 -4 -17 -4 -37z"/>
<path d="M12021 6537 c1 -43 4 -77 8 -77 8 0 6 138 -3 147 -3 3 -5 -28 -5 -70z"/>
<path d="M12016 6435 c-3 -8 -1 -15 4 -15 6 0 10 7 10 15 0 8 -2 15 -4 15 -2
0 -6 -7 -10 -15z"/>
<path d="M12017 6388 c-4 -13 -1 -26 6 -30 7 -4 7 -8 2 -8 -6 0 -10 -51 -11
-135 0 -94 4 -135 11 -135 13 0 13 28 1 48 -4 7 -2 12 5 12 8 0 7 5 -2 17 -8
9 -9 14 -4 11 6 -4 10 38 10 118 0 118 -6 150 -18 102z"/>
<path d="M4211 6304 c0 -11 3 -14 6 -6 3 7 2 16 -1 19 -3 4 -6 -2 -5 -13z"/>
<path d="M4211 6234 c0 -11 3 -14 6 -6 3 7 2 16 -1 19 -3 4 -6 -2 -5 -13z"/>
<path d="M9080 6189 c0 -5 5 -7 10 -4 6 3 10 8 10 11 0 2 -4 4 -10 4 -5 0 -10
-5 -10 -11z"/>
<path d="M4212 6140 c0 -14 2 -19 5 -12 2 6 2 18 0 25 -3 6 -5 1 -5 -13z"/>
<path d="M10662 6080 c0 -14 2 -19 5 -12 2 6 2 18 0 25 -3 6 -5 1 -5 -13z"/>
<path d="M12020 6038 c0 -36 10 -32 14 6 2 14 -1 26 -5 26 -5 0 -9 -14 -9 -32z"/>
<path d="M10661 6024 c0 -11 3 -14 6 -6 3 7 2 16 -1 19 -3 4 -6 -2 -5 -13z"/>
<path d="M12020 5977 c0 -15 4 -27 8 -27 10 0 9 36 -1 46 -4 4 -7 -5 -7 -19z"/>
<path d="M4211 5854 c0 -11 3 -14 6 -6 3 7 2 16 -1 19 -3 4 -6 -2 -5 -13z"/>
<path d="M5070 5813 c-8 -4 -21 -12 -28 -20 -11 -11 -11 -13 2 -13 9 0 16 5
16 10 0 6 7 10 15 10 8 0 15 5 15 10 0 6 -1 10 -2 9 -2 0 -10 -3 -18 -6z"/>
<path d="M5105 5810 c-3 -5 -1 -10 4 -10 6 0 11 5 11 10 0 6 -2 10 -4 10 -3 0
-8 -4 -11 -10z"/>
<path d="M5383 5813 c-7 -3 -13 -11 -13 -19 0 -12 17 -15 95 -13 52 1 92 5 89
10 -3 5 -28 7 -57 4 -38 -3 -46 -2 -29 5 31 13 28 15 -15 13 -50 -2 -51 -3
-28 -13 16 -7 14 -9 -15 -9 -25 -1 -31 2 -20 9 16 10 11 20 -7 13z"/>
<path d="M12386 5809 c5 -8 -3 -10 -25 -7 -17 2 -31 1 -31 -3 0 -11 33 -15 70
-8 19 3 27 7 18 8 -10 0 -18 6 -18 11 0 6 -5 10 -11 10 -5 0 -7 -5 -3 -11z"/>
<path d="M12456 5805 c-20 -15 -20 -15 0 -15 12 0 21 7 21 15 0 8 -1 15 -1 15
-1 0 -10 -7 -20 -15z"/>
<path d="M12491 5804 c0 -11 3 -14 6 -6 3 7 2 16 -1 19 -3 4 -6 -2 -5 -13z"/>
<path d="M12510 5805 c0 -9 9 -15 25 -15 16 0 25 6 25 16 0 14 -3 14 -15 4
-10 -9 -15 -9 -15 -1 0 6 -4 11 -10 11 -5 0 -10 -7 -10 -15z"/>
<path d="M12577 5806 c-5 -12 0 -16 23 -16 17 0 30 4 30 10 0 5 -7 7 -16 3 -9
-3 -19 0 -24 6 -5 10 -9 9 -13 -3z"/>
<path d="M4450 5800 c0 -5 5 -10 11 -10 5 0 7 5 4 10 -3 6 -8 10 -11 10 -2 0
-4 -4 -4 -10z"/>
<path d="M4618 5803 c7 -3 16 -2 19 1 4 3 -2 6 -13 5 -11 0 -14 -3 -6 -6z"/>
<path d="M4866 5795 c3 -8 12 -11 20 -8 20 7 17 18 -5 20 -13 1 -18 -3 -15
-12z"/>
<path d="M4947 5803 c-10 -9 -9 -23 1 -23 5 0 9 7 9 15 0 17 -1 18 -10 8z"/>
<path d="M5143 5803 c9 -2 23 -2 30 0 6 3 -1 5 -18 5 -16 0 -22 -2 -12 -5z"/>
<path d="M5200 5800 c10 -6 -2 -10 -40 -13 -30 -2 -12 -3 40 -4 52 0 79 2 60
4 -19 3 -39 9 -44 14 -6 5 -15 9 -20 9 -6 0 -4 -4 4 -10z"/>
<path d="M5570 5790 c0 -5 4 -10 9 -10 6 0 13 5 16 10 3 6 -1 10 -9 10 -9 0
-16 -4 -16 -10z"/>
<path d="M5618 5793 c7 -3 16 -2 19 1 4 3 -2 6 -13 5 -11 0 -14 -3 -6 -6z"/>
<path d="M9525 5789 c-4 -6 -5 -12 -2 -15 2 -3 7 2 10 11 7 17 1 20 -8 4z"/>
<path d="M4558 5783 c7 -3 16 -2 19 1 4 3 -2 6 -13 5 -11 0 -14 -3 -6 -6z"/>
<path d="M4628 5783 c7 -3 16 -2 19 1 4 3 -2 6 -13 5 -11 0 -14 -3 -6 -6z"/>
<path d="M4998 5783 c7 -3 16 -2 19 1 4 3 -2 6 -13 5 -11 0 -14 -3 -6 -6z"/>
<path d="M5078 5783 c7 -3 16 -2 19 1 4 3 -2 6 -13 5 -11 0 -14 -3 -6 -6z"/>
<path d="M5308 5783 c7 -3 16 -2 19 1 4 3 -2 6 -13 5 -11 0 -14 -3 -6 -6z"/>
<path d="M3293 4435 c0 -8 4 -12 9 -9 5 3 6 10 3 15 -9 13 -12 11 -12 -6z"/>
</g>
</svg>
